<svg width="20" height="20" viewBox="0 0 20 20" fill="none" xmlns="http://www.w3.org/2000/svg">
<path d="M18.8889 17.9996C19.1836 17.9996 19.4662 18.105 19.6746 18.2926C19.8829 18.4801 20 18.7345 20 18.9998C20 19.2651 19.8829 19.5195 19.6746 19.707C19.4662 19.8946 19.1836 20 18.8889 20H1.11111C0.816426 20 0.533811 19.8946 0.325437 19.707C0.117063 19.5195 0 19.2651 0 18.9998C0 18.7345 0.117063 18.4801 0.325437 18.2926C0.533811 18.105 0.816426 17.9996 1.11111 17.9996H18.8889ZM10 0C10.2947 0 10.5773 0.105378 10.7857 0.292952C10.994 0.480526 11.1111 0.734931 11.1111 1.0002V13.0816L16.4333 8.29066C16.6331 8.11094 16.9014 8.00644 17.1837 7.99841C17.466 7.99038 17.7411 8.07943 17.953 8.24744C18.165 8.41545 18.298 8.64982 18.3248 8.90291C18.3517 9.15599 18.2705 9.40879 18.0978 9.60992L18.0044 9.70394L10.7811 16.2102C10.5899 16.3826 10.3354 16.4862 10.0654 16.5017C9.79538 16.5172 9.52836 16.4434 9.31444 16.2943L9.21 16.2112L1.99333 9.72594C1.7933 9.54629 1.67683 9.30477 1.6676 9.05055C1.65838 8.79632 1.75711 8.54848 1.94369 8.35746C2.13027 8.16643 2.39069 8.04658 2.67197 8.02228C2.95324 7.99797 3.23424 8.07105 3.45778 8.22665L3.56222 8.30966L8.88889 13.0946V1.0002C8.88889 0.734931 9.00595 0.480526 9.21433 0.292952C9.4227 0.105378 9.70531 0 10 0Z" fill="#BCBCBE"/>
</svg>
