<svg width="28" height="28" viewBox="0 0 28 28" fill="none" xmlns="http://www.w3.org/2000/svg">
<rect width="28" height="28" rx="6" fill="#00D8C3"/>
<path d="M20 16.9286C19.0111 16.9286 18.0444 16.6081 17.2221 16.0077C16.3999 15.4072 15.759 14.5538 15.3806 13.5554C15.0022 12.5569 14.9031 11.4582 15.0961 10.3983C15.289 9.33829 15.7652 8.36465 16.4645 7.60045C17.1637 6.83626 18.0546 6.31584 19.0245 6.105C19.9945 5.89416 20.9998 6.00237 21.9134 6.41595C22.827 6.82953 23.6079 7.5299 24.1573 8.42849C24.7068 9.32709 25 10.3836 25 11.4643C25 12.1819 24.8707 12.8924 24.6194 13.5554C24.3681 14.2183 23.9998 14.8207 23.5355 15.3281C23.0712 15.8355 22.52 16.238 21.9134 16.5126C21.3068 16.7872 20.6566 16.9286 20 16.9286ZM20 7.21429C19.2309 7.21429 18.479 7.46355 17.8394 7.93054C17.1999 8.39754 16.7015 9.0613 16.4071 9.83788C16.1128 10.6145 16.0358 11.469 16.1858 12.2934C16.3359 13.1178 16.7063 13.8751 17.2501 14.4695C17.794 15.0639 18.4869 15.4686 19.2413 15.6326C19.9957 15.7966 20.7776 15.7124 21.4882 15.3908C22.1988 15.0691 22.8062 14.5244 23.2335 13.8255C23.6608 13.1266 23.8889 12.3049 23.8889 11.4643C23.8889 10.3371 23.4792 9.25611 22.7499 8.45908C22.0206 7.66205 21.0314 7.21429 20 7.21429ZM6.11111 16.9286H5V7.21429H13.8889V8.42857H6.11111V16.9286ZM7.22222 18.1429C7.66174 18.1429 8.09138 18.2853 8.45682 18.5521C8.82227 18.819 9.10709 19.1983 9.27529 19.6421C9.44348 20.0858 9.48749 20.5741 9.40174 21.0452C9.316 21.5163 9.10435 21.949 8.79357 22.2887C8.48279 22.6283 8.08683 22.8596 7.65576 22.9533C7.22469 23.047 6.77787 22.9989 6.37181 22.8151C5.96576 22.6313 5.61869 22.32 5.37451 21.9207C5.13033 21.5213 5 21.0518 5 20.5714C5 20.2525 5.05748 19.9367 5.16916 19.6421C5.28083 19.3474 5.44452 19.0797 5.65087 18.8542C5.85723 18.6287 6.1022 18.4498 6.37181 18.3277C6.64143 18.2057 6.9304 18.1429 7.22222 18.1429ZM7.22222 21.7857C7.44198 21.7857 7.6568 21.7145 7.83952 21.5811C8.02224 21.4476 8.16466 21.258 8.24875 21.0361C8.33285 20.8142 8.35486 20.5701 8.31198 20.3345C8.26911 20.099 8.16329 19.8826 8.0079 19.7128C7.8525 19.543 7.65452 19.4273 7.43899 19.3805C7.22345 19.3336 7.00005 19.3577 6.79702 19.4496C6.59399 19.5415 6.42046 19.6971 6.29837 19.8968C6.17628 20.0965 6.11111 20.3313 6.11111 20.5714C6.11111 20.8935 6.22817 21.2023 6.43655 21.4301C6.64492 21.6578 6.92754 21.7857 7.22222 21.7857ZM17.2222 23H10.5556V21.7857H17.2222V23ZM20.5556 18.1429C20.9951 18.1429 21.4247 18.2853 21.7902 18.5521C22.1556 18.819 22.4404 19.1983 22.6086 19.6421C22.7768 20.0858 22.8208 20.5741 22.7351 21.0452C22.6493 21.5163 22.4377 21.949 22.1269 22.2887C21.8161 22.6283 21.4202 22.8596 20.9891 22.9533C20.558 23.047 20.1112 22.9989 19.7051 22.8151C19.2991 22.6313 18.952 22.32 18.7078 21.9207C18.4637 21.5213 18.3333 21.0518 18.3333 20.5714C18.3333 20.2525 18.3908 19.9367 18.5025 19.6421C18.6142 19.3474 18.7779 19.0797 18.9842 18.8542C19.1906 18.6287 19.4355 18.4498 19.7051 18.3277C19.9748 18.2057 20.2637 18.1429 20.5556 18.1429ZM20.5556 21.7857C20.7753 21.7857 20.9901 21.7145 21.1729 21.5811C21.3556 21.4476 21.498 21.258 21.5821 21.0361C21.6662 20.8142 21.6882 20.5701 21.6453 20.3345C21.6024 20.099 21.4966 19.8826 21.3412 19.7128C21.1858 19.543 20.9879 19.4273 20.7723 19.3805C20.5568 19.3336 20.3334 19.3577 20.1304 19.4496C19.9273 19.5415 19.7538 19.6971 19.6317 19.8968C19.5096 20.0965 19.4444 20.3313 19.4444 20.5714C19.4444 20.7309 19.4732 20.8888 19.529 21.0361C19.5849 21.1834 19.6667 21.3173 19.7699 21.4301C19.8731 21.5428 19.9955 21.6323 20.1304 21.6933C20.2652 21.7543 20.4096 21.7857 20.5556 21.7857Z" fill="#1E1F24" stroke="#1E1F24" stroke-width="0.25"/>
<path d="M20.3037 8.875C20.8571 8.875 21.3365 8.99586 21.7197 9.25293L21.8779 9.37207L21.8789 9.37305L22.0195 9.50586C22.326 9.82997 22.4814 10.2444 22.4814 10.7461C22.4814 11.1268 22.3875 11.4554 22.1934 11.7217C22.0548 11.9118 21.8685 12.0639 21.6387 12.1807C21.8934 12.2975 22.1027 12.4526 22.2617 12.6533L22.3457 12.7607C22.5274 13.0183 22.6162 13.3268 22.6162 13.6797C22.6162 14.2206 22.447 14.6796 22.1152 15.0498L21.9629 15.2031C21.5217 15.6059 20.9497 15.8027 20.2588 15.8027C19.6238 15.8027 19.1002 15.634 18.6875 15.3076L18.6855 15.3066C18.1943 14.9021 17.9309 14.3178 17.875 13.5723L17.8652 13.4385H18.8672L18.8721 13.5586C18.8891 14.0344 19.0485 14.3838 19.3291 14.6172L19.4238 14.6875C19.6521 14.8401 19.9272 14.9228 20.2588 14.9229C20.6917 14.9229 21.0283 14.7962 21.2803 14.5605C21.507 14.3325 21.6279 14.0504 21.6279 13.707C21.6279 13.3948 21.5405 13.1565 21.3711 12.9756L21.2939 12.9023C21.0725 12.7125 20.7635 12.6172 20.3311 12.6172H19.6836V11.791H20.3037C20.7163 11.791 21.0073 11.6967 21.2021 11.5342C21.3956 11.3639 21.5019 11.1216 21.502 10.791C21.502 10.4602 21.396 10.2165 21.21 10.0459H21.209C21.0063 9.85883 20.7089 9.76375 20.3135 9.76367C19.9023 9.76367 19.6042 9.86658 19.3916 10.0713L19.3896 10.0723C19.1659 10.2801 19.0311 10.582 18.9883 10.9932L18.9766 11.1055H17.999L18.0107 10.9688L18.04 10.7324C18.1307 10.1939 18.366 9.75698 18.7363 9.42871C19.1418 9.05329 19.6684 8.87505 20.3037 8.875Z" fill="#1E1F24" stroke="#1E1F24" stroke-width="0.25"/>
</svg>
