<svg width="28" height="28" viewBox="0 0 28 28" fill="none" xmlns="http://www.w3.org/2000/svg">
<rect width="28" height="28" rx="6" fill="#00D8C3"/>
<path d="M20 16.9286C19.0111 16.9286 18.0444 16.6081 17.2221 16.0077C16.3999 15.4072 15.759 14.5538 15.3806 13.5554C15.0022 12.5569 14.9031 11.4582 15.0961 10.3983C15.289 9.33829 15.7652 8.36465 16.4645 7.60045C17.1637 6.83626 18.0546 6.31584 19.0245 6.105C19.9945 5.89416 20.9998 6.00237 21.9134 6.41595C22.827 6.82953 23.6079 7.5299 24.1573 8.42849C24.7068 9.32709 25 10.3836 25 11.4643C25 12.1819 24.8707 12.8924 24.6194 13.5554C24.3681 14.2183 23.9998 14.8207 23.5355 15.3281C23.0712 15.8355 22.52 16.238 21.9134 16.5126C21.3068 16.7872 20.6566 16.9286 20 16.9286ZM20 7.21429C19.2309 7.21429 18.479 7.46355 17.8394 7.93054C17.1999 8.39754 16.7015 9.0613 16.4071 9.83788C16.1128 10.6145 16.0358 11.469 16.1858 12.2934C16.3359 13.1178 16.7063 13.8751 17.2501 14.4695C17.794 15.0639 18.4869 15.4686 19.2413 15.6326C19.9957 15.7966 20.7776 15.7124 21.4882 15.3908C22.1988 15.0691 22.8062 14.5244 23.2335 13.8255C23.6608 13.1266 23.8889 12.3049 23.8889 11.4643C23.8889 10.3371 23.4792 9.25611 22.7499 8.45908C22.0206 7.66205 21.0314 7.21429 20 7.21429ZM6.11111 16.9286H5V7.21429H13.8889V8.42857H6.11111V16.9286ZM7.22222 18.1429C7.66174 18.1429 8.09138 18.2853 8.45682 18.5521C8.82227 18.819 9.10709 19.1983 9.27529 19.6421C9.44348 20.0858 9.48749 20.5741 9.40174 21.0452C9.316 21.5163 9.10435 21.949 8.79357 22.2887C8.48279 22.6283 8.08683 22.8596 7.65576 22.9533C7.22469 23.047 6.77787 22.9989 6.37181 22.8151C5.96576 22.6313 5.61869 22.32 5.37451 21.9207C5.13033 21.5213 5 21.0518 5 20.5714C5 20.2525 5.05748 19.9367 5.16916 19.6421C5.28083 19.3474 5.44452 19.0797 5.65087 18.8542C5.85723 18.6287 6.1022 18.4498 6.37181 18.3277C6.64143 18.2057 6.9304 18.1429 7.22222 18.1429ZM7.22222 21.7857C7.44198 21.7857 7.6568 21.7145 7.83952 21.5811C8.02224 21.4476 8.16466 21.258 8.24875 21.0361C8.33285 20.8142 8.35486 20.5701 8.31198 20.3345C8.26911 20.099 8.16329 19.8826 8.0079 19.7128C7.8525 19.543 7.65452 19.4273 7.43899 19.3805C7.22345 19.3336 7.00005 19.3577 6.79702 19.4496C6.59399 19.5415 6.42046 19.6971 6.29837 19.8968C6.17628 20.0965 6.11111 20.3313 6.11111 20.5714C6.11111 20.8935 6.22817 21.2023 6.43655 21.4301C6.64492 21.6578 6.92754 21.7857 7.22222 21.7857ZM17.2222 23H10.5556V21.7857H17.2222V23ZM20.5556 18.1429C20.9951 18.1429 21.4247 18.2853 21.7902 18.5521C22.1556 18.819 22.4404 19.1983 22.6086 19.6421C22.7768 20.0858 22.8208 20.5741 22.7351 21.0452C22.6493 21.5163 22.4377 21.949 22.1269 22.2887C21.8161 22.6283 21.4202 22.8596 20.9891 22.9533C20.558 23.047 20.1112 22.9989 19.7051 22.8151C19.2991 22.6313 18.952 22.32 18.7078 21.9207C18.4637 21.5213 18.3333 21.0518 18.3333 20.5714C18.3333 20.2525 18.3908 19.9367 18.5025 19.6421C18.6142 19.3474 18.7779 19.0797 18.9842 18.8542C19.1906 18.6287 19.4355 18.4498 19.7051 18.3277C19.9748 18.2057 20.2637 18.1429 20.5556 18.1429ZM20.5556 21.7857C20.7753 21.7857 20.9901 21.7145 21.1729 21.5811C21.3556 21.4476 21.498 21.258 21.5821 21.0361C21.6662 20.8142 21.6882 20.5701 21.6453 20.3345C21.6024 20.099 21.4966 19.8826 21.3412 19.7128C21.1858 19.543 20.9879 19.4273 20.7723 19.3805C20.5568 19.3336 20.3334 19.3577 20.1304 19.4496C19.9273 19.5415 19.7538 19.6971 19.6317 19.8968C19.5096 20.0965 19.4444 20.3313 19.4444 20.5714C19.4444 20.7309 19.4732 20.8888 19.529 21.0361C19.5849 21.1834 19.6667 21.3173 19.7699 21.4301C19.8731 21.5428 19.9955 21.6323 20.1304 21.6933C20.2652 21.7543 20.4096 21.7857 20.5556 21.7857Z" fill="#1E1F24" stroke="#1E1F24" stroke-width="0.25"/>
<mask id="path-3-outside-1_76_4021" maskUnits="userSpaceOnUse" x="17" y="8" width="6" height="8" fill="black">
<rect fill="white" x="17" y="8" width="6" height="8"/>
<path d="M19.79 8.448C20.978 8.448 21.662 9.015 21.842 10.167H21.113C20.969 9.429 20.528 9.069 19.781 9.069C19.277 9.069 18.881 9.312 18.593 9.816C18.305 10.284 18.17 10.887 18.17 11.616C18.17 11.652 18.17 11.733 18.179 11.85H18.215C18.377 11.517 18.602 11.256 18.908 11.076C19.196 10.887 19.529 10.797 19.907 10.797C20.519 10.797 21.014 10.995 21.392 11.391C21.761 11.787 21.95 12.291 21.95 12.921C21.95 13.551 21.743 14.082 21.338 14.496C20.924 14.91 20.411 15.126 19.781 15.126C18.998 15.126 18.413 14.829 18.017 14.253C17.639 13.704 17.459 12.939 17.459 11.958C17.459 10.932 17.657 10.095 18.062 9.456C18.485 8.781 19.061 8.448 19.79 8.448ZM19.763 11.409C19.34 11.409 18.989 11.553 18.71 11.841C18.431 12.129 18.296 12.489 18.296 12.939C18.296 13.389 18.422 13.758 18.692 14.046C18.962 14.352 19.313 14.505 19.763 14.505C20.195 14.505 20.546 14.352 20.816 14.064C21.086 13.758 21.221 13.38 21.221 12.921C21.221 12.462 21.086 12.102 20.825 11.832C20.555 11.544 20.204 11.409 19.763 11.409Z"/>
</mask>
<path d="M19.79 8.448C20.978 8.448 21.662 9.015 21.842 10.167H21.113C20.969 9.429 20.528 9.069 19.781 9.069C19.277 9.069 18.881 9.312 18.593 9.816C18.305 10.284 18.17 10.887 18.17 11.616C18.17 11.652 18.17 11.733 18.179 11.85H18.215C18.377 11.517 18.602 11.256 18.908 11.076C19.196 10.887 19.529 10.797 19.907 10.797C20.519 10.797 21.014 10.995 21.392 11.391C21.761 11.787 21.95 12.291 21.95 12.921C21.95 13.551 21.743 14.082 21.338 14.496C20.924 14.91 20.411 15.126 19.781 15.126C18.998 15.126 18.413 14.829 18.017 14.253C17.639 13.704 17.459 12.939 17.459 11.958C17.459 10.932 17.657 10.095 18.062 9.456C18.485 8.781 19.061 8.448 19.79 8.448ZM19.763 11.409C19.34 11.409 18.989 11.553 18.71 11.841C18.431 12.129 18.296 12.489 18.296 12.939C18.296 13.389 18.422 13.758 18.692 14.046C18.962 14.352 19.313 14.505 19.763 14.505C20.195 14.505 20.546 14.352 20.816 14.064C21.086 13.758 21.221 13.38 21.221 12.921C21.221 12.462 21.086 12.102 20.825 11.832C20.555 11.544 20.204 11.409 19.763 11.409Z" fill="#1E1F24"/>
<path d="M21.842 10.167V10.417H22.1341L22.089 10.1284L21.842 10.167ZM21.113 10.167L20.8676 10.2149L20.9071 10.417H21.113V10.167ZM18.593 9.816L18.806 9.94709L18.8101 9.94003L18.593 9.816ZM18.179 11.85L17.9297 11.8692L17.9475 12.1H18.179V11.85ZM18.215 11.85V12.1H18.3714L18.4398 11.9594L18.215 11.85ZM18.908 11.076L19.0349 11.2917L19.0452 11.285L18.908 11.076ZM21.392 11.391L21.5749 11.2206L21.5728 11.2184L21.392 11.391ZM21.338 14.496L21.5148 14.6728L21.5167 14.6708L21.338 14.496ZM18.017 14.253L18.223 14.1114L18.2229 14.1112L18.017 14.253ZM18.062 9.456L18.2732 9.58983L18.2738 9.58875L18.062 9.456ZM18.692 14.046L18.8795 13.8805L18.8744 13.875L18.692 14.046ZM20.816 14.064L20.9985 14.2351L21.0035 14.2294L20.816 14.064ZM20.825 11.832L20.6426 12.003L20.6453 12.0058L20.825 11.832ZM19.79 8.448V8.698C20.3455 8.698 20.75 8.8303 21.0337 9.06735C21.3165 9.30363 21.5114 9.67088 21.595 10.2056L21.842 10.167L22.089 10.1284C21.9926 9.51112 21.7555 9.01887 21.3543 8.68365C20.954 8.3492 20.4225 8.198 19.79 8.198V8.448ZM21.842 10.167V9.917H21.113V10.167V10.417H21.842V10.167ZM21.113 10.167L21.3584 10.1191C21.2787 9.71099 21.1107 9.37739 20.8319 9.14815C20.5532 8.91897 20.1941 8.819 19.781 8.819V9.069V9.319C20.1149 9.319 20.3498 9.39903 20.5143 9.53435C20.6788 9.66961 20.8033 9.88501 20.8676 10.2149L21.113 10.167ZM19.781 9.069V8.819C19.175 8.819 18.702 9.12135 18.3759 9.69196L18.593 9.816L18.8101 9.94003C19.06 9.50265 19.379 9.319 19.781 9.319V9.069ZM18.593 9.816L18.3801 9.68498C18.0599 10.2053 17.92 10.8586 17.92 11.616H18.17H18.42C18.42 10.9154 18.5501 10.3627 18.8059 9.94702L18.593 9.816ZM18.17 11.616H17.92C17.92 11.6547 17.92 11.7429 17.9297 11.8692L18.179 11.85L18.4283 11.8308C18.42 11.7231 18.42 11.6493 18.42 11.616H18.17ZM18.179 11.85V12.1H18.215V11.85V11.6H18.179V11.85ZM18.215 11.85L18.4398 11.9594C18.5835 11.664 18.7771 11.4431 19.0348 11.2915L18.908 11.076L18.7812 10.8605C18.4269 11.0689 18.1705 11.37 17.9902 11.7406L18.215 11.85ZM18.908 11.076L19.0452 11.285C19.2868 11.1265 19.5705 11.047 19.907 11.047V10.797V10.547C19.4875 10.547 19.1052 10.6475 18.7708 10.867L18.908 11.076ZM19.907 10.797V11.047C20.4596 11.047 20.8861 11.2231 21.2112 11.5636L21.392 11.391L21.5728 11.2184C21.1419 10.7669 20.5784 10.547 19.907 10.547V10.797ZM21.392 11.391L21.2091 11.5614C21.5295 11.9053 21.7 12.3457 21.7 12.921H21.95H22.2C22.2 12.2363 21.9925 11.6687 21.5749 11.2206L21.392 11.391ZM21.95 12.921H21.7C21.7 13.4916 21.5146 13.958 21.1593 14.3212L21.338 14.496L21.5167 14.6708C21.9714 14.206 22.2 13.6104 22.2 12.921H21.95ZM21.338 14.496L21.1612 14.3192C20.7953 14.6851 20.3464 14.876 19.781 14.876V15.126V15.376C20.4756 15.376 21.0527 15.1349 21.5148 14.6728L21.338 14.496ZM19.781 15.126V14.876C19.0718 14.876 18.5677 14.6128 18.223 14.1114L18.017 14.253L17.811 14.3946C18.2583 15.0452 18.9242 15.376 19.781 15.376V15.126ZM18.017 14.253L18.2229 14.1112C17.8851 13.6206 17.709 12.9133 17.709 11.958H17.459H17.209C17.209 12.9647 17.3929 13.7874 17.8111 14.3948L18.017 14.253ZM17.459 11.958H17.709C17.709 10.9618 17.9016 10.1761 18.2732 9.58983L18.062 9.456L17.8508 9.32217C17.4124 10.0139 17.209 10.9022 17.209 11.958H17.459ZM18.062 9.456L18.2738 9.58875C18.6556 8.97959 19.1552 8.698 19.79 8.698V8.448V8.198C18.9668 8.198 18.3144 8.58241 17.8502 9.32325L18.062 9.456ZM19.763 11.409V11.159C19.2765 11.159 18.8593 11.3275 18.5304 11.6671L18.71 11.841L18.8896 12.0149C19.1187 11.7785 19.4035 11.659 19.763 11.659V11.409ZM18.71 11.841L18.5304 11.6671C18.2003 12.0079 18.046 12.4332 18.046 12.939H18.296H18.546C18.546 12.5448 18.6617 12.2501 18.8896 12.0149L18.71 11.841ZM18.296 12.939H18.046C18.046 13.4388 18.1876 13.8735 18.5096 14.217L18.692 14.046L18.8744 13.875C18.6564 13.6425 18.546 13.3392 18.546 12.939H18.296ZM18.692 14.046L18.5045 14.2114C18.8261 14.5759 19.2478 14.755 19.763 14.755V14.505V14.255C19.3782 14.255 19.0979 14.1281 18.8795 13.8806L18.692 14.046ZM19.763 14.505V14.755C20.261 14.755 20.679 14.5756 20.9984 14.235L20.816 14.064L20.6336 13.893C20.413 14.1284 20.129 14.255 19.763 14.255V14.505ZM20.816 14.064L21.0035 14.2294C21.3184 13.8724 21.471 13.4335 21.471 12.921H21.221H20.971C20.971 13.3265 20.8536 13.6436 20.6285 13.8986L20.816 14.064ZM21.221 12.921H21.471C21.471 12.4095 21.3187 11.983 21.0047 11.6582L20.825 11.832L20.6453 12.0058C20.8533 12.221 20.971 12.5145 20.971 12.921H21.221ZM20.825 11.832L21.0074 11.661C20.6823 11.3143 20.2608 11.159 19.763 11.159V11.409V11.659C20.1472 11.659 20.4277 11.7737 20.6426 12.003L20.825 11.832Z" fill="#1E1F24" mask="url(#path-3-outside-1_76_4021)"/>
</svg>
