<svg width="28" height="28" viewBox="0 0 28 28" fill="none" xmlns="http://www.w3.org/2000/svg">
<rect width="28" height="28" rx="6" fill="#00D8C3"/>
<path d="M20 16.9286C19.0111 16.9286 18.0444 16.6081 17.2221 16.0077C16.3999 15.4072 15.759 14.5538 15.3806 13.5554C15.0022 12.5569 14.9031 11.4582 15.0961 10.3983C15.289 9.33829 15.7652 8.36465 16.4645 7.60045C17.1637 6.83626 18.0546 6.31584 19.0245 6.105C19.9945 5.89416 20.9998 6.00237 21.9134 6.41595C22.827 6.82953 23.6079 7.5299 24.1573 8.42849C24.7068 9.32709 25 10.3836 25 11.4643C25 12.1819 24.8707 12.8924 24.6194 13.5554C24.3681 14.2183 23.9998 14.8207 23.5355 15.3281C23.0712 15.8355 22.52 16.238 21.9134 16.5126C21.3068 16.7872 20.6566 16.9286 20 16.9286ZM20 7.21429C19.2309 7.21429 18.479 7.46355 17.8394 7.93054C17.1999 8.39754 16.7015 9.0613 16.4071 9.83788C16.1128 10.6145 16.0358 11.469 16.1858 12.2934C16.3359 13.1178 16.7063 13.8751 17.2501 14.4695C17.794 15.0639 18.4869 15.4686 19.2413 15.6326C19.9957 15.7966 20.7776 15.7124 21.4882 15.3908C22.1988 15.0691 22.8062 14.5244 23.2335 13.8255C23.6608 13.1266 23.8889 12.3049 23.8889 11.4643C23.8889 10.3371 23.4792 9.25611 22.7499 8.45908C22.0206 7.66205 21.0314 7.21429 20 7.21429ZM6.11111 16.9286H5V7.21429H13.8889V8.42857H6.11111V16.9286ZM7.22222 18.1429C7.66174 18.1429 8.09138 18.2853 8.45682 18.5521C8.82227 18.819 9.10709 19.1983 9.27529 19.6421C9.44348 20.0858 9.48749 20.5741 9.40174 21.0452C9.316 21.5163 9.10435 21.949 8.79357 22.2887C8.48279 22.6283 8.08683 22.8596 7.65576 22.9533C7.22469 23.047 6.77787 22.9989 6.37181 22.8151C5.96576 22.6313 5.61869 22.32 5.37451 21.9207C5.13033 21.5213 5 21.0518 5 20.5714C5 20.2525 5.05748 19.9367 5.16916 19.6421C5.28083 19.3474 5.44452 19.0797 5.65087 18.8542C5.85723 18.6287 6.1022 18.4498 6.37181 18.3277C6.64143 18.2057 6.9304 18.1429 7.22222 18.1429ZM7.22222 21.7857C7.44198 21.7857 7.6568 21.7145 7.83952 21.5811C8.02224 21.4476 8.16466 21.258 8.24875 21.0361C8.33285 20.8142 8.35486 20.5701 8.31198 20.3345C8.26911 20.099 8.16329 19.8826 8.0079 19.7128C7.8525 19.543 7.65452 19.4273 7.43899 19.3805C7.22345 19.3336 7.00005 19.3577 6.79702 19.4496C6.59399 19.5415 6.42046 19.6971 6.29837 19.8968C6.17628 20.0965 6.11111 20.3313 6.11111 20.5714C6.11111 20.8935 6.22817 21.2023 6.43655 21.4301C6.64492 21.6578 6.92754 21.7857 7.22222 21.7857ZM17.2222 23H10.5556V21.7857H17.2222V23ZM20.5556 18.1429C20.9951 18.1429 21.4247 18.2853 21.7902 18.5521C22.1556 18.819 22.4404 19.1983 22.6086 19.6421C22.7768 20.0858 22.8208 20.5741 22.7351 21.0452C22.6493 21.5163 22.4377 21.949 22.1269 22.2887C21.8161 22.6283 21.4202 22.8596 20.9891 22.9533C20.558 23.047 20.1112 22.9989 19.7051 22.8151C19.2991 22.6313 18.952 22.32 18.7078 21.9207C18.4637 21.5213 18.3333 21.0518 18.3333 20.5714C18.3333 20.2525 18.3908 19.9367 18.5025 19.6421C18.6142 19.3474 18.7779 19.0797 18.9842 18.8542C19.1906 18.6287 19.4355 18.4498 19.7051 18.3277C19.9748 18.2057 20.2637 18.1429 20.5556 18.1429ZM20.5556 21.7857C20.7753 21.7857 20.9901 21.7145 21.1729 21.5811C21.3556 21.4476 21.498 21.258 21.5821 21.0361C21.6662 20.8142 21.6882 20.5701 21.6453 20.3345C21.6024 20.099 21.4966 19.8826 21.3412 19.7128C21.1858 19.543 20.9879 19.4273 20.7723 19.3805C20.5568 19.3336 20.3334 19.3577 20.1304 19.4496C19.9273 19.5415 19.7538 19.6971 19.6317 19.8968C19.5096 20.0965 19.4444 20.3313 19.4444 20.5714C19.4444 20.7309 19.4732 20.8888 19.529 21.0361C19.5849 21.1834 19.6667 21.3173 19.7699 21.4301C19.8731 21.5428 19.9955 21.6323 20.1304 21.6933C20.2652 21.7543 20.4096 21.7857 20.5556 21.7857Z" fill="#1E1F24" stroke="#1E1F24" stroke-width="0.25"/>
<path d="M18.7555 9.25H22.4905V9.907H19.3585L19.1425 12.058H19.1785C19.3585 11.842 19.5925 11.68 19.8715 11.572C20.1235 11.464 20.3935 11.419 20.6905 11.419C21.3025 11.419 21.7975 11.608 22.1755 11.995C22.5535 12.391 22.7515 12.931 22.7515 13.624C22.7515 14.272 22.5175 14.803 22.0585 15.217C21.6265 15.604 21.0865 15.802 20.4565 15.802C19.8895 15.802 19.4035 15.649 19.0075 15.343C18.5575 15.001 18.3145 14.533 18.2695 13.948H18.9985C19.0345 14.353 19.1965 14.668 19.4845 14.884C19.7365 15.073 20.0695 15.172 20.4655 15.172C20.9155 15.172 21.2845 15.028 21.5815 14.74C21.8695 14.452 22.0225 14.083 22.0225 13.633C22.0225 13.12 21.8785 12.724 21.6085 12.445C21.3475 12.157 20.9785 12.022 20.5105 12.022C20.2045 12.022 19.9345 12.085 19.6915 12.22C19.4395 12.346 19.2415 12.544 19.1155 12.796H18.4135L18.7555 9.25Z" fill="#1E1F24"/>
<path d="M22.752 13.624C22.752 13.0177 22.5997 12.5285 22.3086 12.1504L22.1758 11.9951C21.8451 11.6566 21.4247 11.4693 20.915 11.4277L20.6904 11.4189C20.3935 11.419 20.1231 11.4643 19.8711 11.5723L19.6709 11.6631C19.479 11.7643 19.3137 11.8957 19.1787 12.0576H19.1426L19.3584 9.90723H22.4902V9.25H18.7559L18.4131 12.7959H19.1152L19.166 12.7041C19.2738 12.5254 19.4209 12.3783 19.5996 12.2705L19.6914 12.2197C19.9344 12.0847 20.2047 12.0215 20.5107 12.0215L20.6816 12.0283C21.0691 12.0581 21.3801 12.1926 21.6084 12.4443C21.8784 12.7233 22.0225 13.1198 22.0225 13.6328L22.0156 13.7979C21.9824 14.1738 21.834 14.4883 21.582 14.7402L21.4668 14.8408C21.1911 15.0613 20.8595 15.1718 20.4658 15.1719V14.9219C20.8561 14.9218 21.1608 14.7994 21.4072 14.5605C21.6442 14.3224 21.7725 14.0188 21.7725 13.6328C21.7725 13.1673 21.6428 12.8394 21.4287 12.6182L21.4229 12.6123C21.2217 12.3905 20.9286 12.2715 20.5107 12.2715C20.2407 12.2715 20.013 12.3271 19.8125 12.4385L19.8037 12.4434C19.6001 12.5451 19.4407 12.7037 19.3389 12.9072L19.2705 13.0459H18.1387L18.5068 9.22559L18.5283 9H22.7402V10.1572H19.585L19.4492 11.502C19.5509 11.4402 19.6593 11.3875 19.7734 11.3428C20.0631 11.2187 20.3679 11.169 20.6904 11.1689C21.2751 11.1689 21.7799 11.3285 22.1865 11.665L22.3545 11.8203L22.3564 11.8223L22.5078 11.999C22.8377 12.4281 23.002 12.974 23.002 13.624C23.0019 14.3401 22.7389 14.9393 22.2256 15.4023C21.744 15.8338 21.143 16.0517 20.457 16.0518C19.843 16.0518 19.3003 15.8855 18.8545 15.541C18.3449 15.1528 18.0705 14.6169 18.0205 13.9668L18 13.6982H19.2275L19.248 13.9258C19.2788 14.2713 19.412 14.5165 19.6348 14.6836L19.7129 14.7373C19.9042 14.8543 20.1553 14.9219 20.4658 14.9219V15.1719L20.3203 15.167C20.0352 15.1486 19.787 15.075 19.583 14.9502L19.4844 14.8838C19.1966 14.6679 19.0351 14.353 18.999 13.9482H18.2695C18.3146 14.533 18.5579 15.0009 19.0078 15.3428C19.3544 15.6105 19.7697 15.7615 20.248 15.7949L20.457 15.8018C21.008 15.8017 21.4904 15.6505 21.8916 15.3535L22.0586 15.2168C22.4602 14.8546 22.6892 14.4027 22.7402 13.8613L22.752 13.624Z" fill="#1E1F24"/>
</svg>
