<svg width="28" height="28" viewBox="0 0 28 28" fill="none" xmlns="http://www.w3.org/2000/svg">
<rect width="28" height="28" rx="6" fill="#00D8C3"/>
<path d="M20.8777 22.2193C20.8777 22.5954 20.573 22.9001 20.1969 22.9001H5.45426C5.27371 22.9001 5.10058 22.8283 4.97292 22.7006C4.84527 22.573 4.77356 22.3998 4.77356 22.2193C4.77356 22.0387 4.84527 21.8656 4.97292 21.7379C5.10058 21.6102 5.27371 21.5385 5.45426 21.5384H20.1961C20.573 21.5384 20.8777 21.8432 20.8777 22.2193ZM22.4876 7.354H23.9362V17.4512H22.4876V7.354Z" fill="black"/>
<path d="M21.9302 11.8758H25V13.5489H21.9302V11.8758ZM12.3919 9.24316H16.1699L12.3919 13.456H15.4266L11.7096 17.8531L12.267 15.0659L9.66632 14.6943L12.3919 9.24316Z" fill="black"/>
<path d="M18.9802 20.9192H5.97305C4.33341 20.9192 3 19.6341 3 18.0547V7.86454C3 6.2851 4.33341 5 5.97305 5H18.9802C20.6205 5 21.9532 6.2851 21.9532 7.86454V18.0547C21.9532 19.6341 20.6205 20.9192 18.9802 20.9192ZM5.97305 6.48727C5.15323 6.48727 4.48653 7.10567 4.48653 7.86528V18.0554C4.48653 18.8143 5.15323 19.4334 5.97305 19.4334H18.9802C19.8007 19.4334 20.4667 18.815 20.4667 18.0554V7.86528C20.4667 7.10567 19.8007 6.48727 18.9802 6.48727H5.97305Z" fill="black"/>
</svg>
