<svg width="28" height="28" viewBox="0 0 28 28" fill="none" xmlns="http://www.w3.org/2000/svg">
<rect width="28" height="28" rx="6" fill="#00D8C3"/>
<path d="M3.125 22.8555L3.125 14.2783C3.125 13.7401 3.32407 13.2248 3.67676 12.8467C4.02916 12.4689 4.50566 12.2588 5 12.2588L7.05469 12.2588L7.0918 12.2187L8.79883 10.3887L8.79785 10.3887C8.87347 10.3078 8.96209 10.2426 9.05859 10.1963L9.13379 10.1602L9.12988 10.0771L9.125 9.98535C9.12553 9.24605 9.2688 8.54238 9.52637 7.9043L9.56445 7.80859L9.47754 7.75293L5.05371 4.90625L5.0498 4.90332C4.94706 4.84265 4.85549 4.76023 4.78223 4.66016C4.70912 4.5602 4.65517 4.44493 4.62402 4.32129C4.59285 4.19744 4.58505 4.06764 4.60156 3.94043C4.61807 3.81333 4.65859 3.69142 4.71973 3.58203C4.78091 3.47265 4.8619 3.37791 4.95703 3.30371C5.05219 3.22953 5.15991 3.17654 5.27344 3.14844C5.38693 3.12036 5.50453 3.11793 5.61914 3.13965C5.70501 3.15594 5.78849 3.18556 5.86621 3.22852L5.94238 3.27637L5.94629 3.27832L10.4941 6.20215L10.5801 6.25781L10.6514 6.18555C11.3438 5.48253 12.212 5.01347 13.1484 4.83496C14.0847 4.65653 15.0496 4.77547 15.9238 5.17871C16.7982 5.58205 17.5443 6.2525 18.0693 7.10742C18.594 7.96182 18.8735 8.96291 18.874 9.9873L18.8711 10.0781L18.8672 10.1611L18.9414 10.1963C19.0136 10.2311 19.0815 10.2765 19.1426 10.3311L19.2012 10.3887L20.9082 12.2187L20.9453 12.2588L23 12.2588C23.4943 12.2588 23.9708 12.4689 24.3232 12.8467C24.6759 13.2248 24.875 13.74 24.875 14.2783L24.875 22.8555L24.8662 23.0547C24.848 23.2525 24.8025 23.4467 24.7314 23.6309C24.6365 23.8765 24.4978 24.0999 24.3232 24.2871C24.1487 24.4742 23.9417 24.6219 23.7148 24.7227C23.488 24.8234 23.245 24.875 23 24.875L5 24.875C4.75503 24.875 4.51201 24.8234 4.28516 24.7227C4.05833 24.6219 3.85127 24.4742 3.67676 24.2871C3.50219 24.0999 3.36345 23.8765 3.26855 23.6309C3.19747 23.4467 3.15199 23.2525 3.13379 23.0547L3.125 22.8555ZM17.125 10.1143L17.125 9.98926C17.1249 9.10587 16.7978 8.25704 16.2129 7.62988C15.6276 7.00237 14.8317 6.64746 14 6.64746C13.1683 6.64746 12.3724 7.00237 11.7871 7.62988C11.2022 8.25704 10.8751 9.10587 10.875 9.98926L10.875 10.1143L17.125 10.1143ZM9.77441 12.0088L9.7373 12.0488L8.32227 13.5645C8.01164 13.8975 7.60386 14.1019 7.16992 14.1445L6.99414 14.1533L4.875 14.1533L4.875 22.9805L7.625 22.9805L7.625 18.0312C7.625 17.7773 7.71963 17.5355 7.88477 17.3584C8.04964 17.1816 8.27086 17.084 8.5 17.084L15 17.084L15.0859 17.0879C15.2839 17.1091 15.4711 17.2038 15.6152 17.3584C15.7803 17.5355 15.875 17.7774 15.875 18.0312C15.8749 18.285 15.7803 18.5271 15.6152 18.7041C15.4504 18.8806 15.2289 18.9775 15 18.9775L9.375 18.9775L9.375 22.9805L23.125 22.9805L23.125 14.1533L21 14.1533L20.8154 14.1436C20.4495 14.1045 20.1015 13.9497 19.8154 13.6982L19.6777 13.5645L18.2617 12.0488L18.2246 12.0088L9.77441 12.0088Z" fill="#1E1F24" stroke="#00D8C3" stroke-width="0.25"/>
</svg>
