<svg width="28" height="28" viewBox="0 0 28 28" fill="none" xmlns="http://www.w3.org/2000/svg">
<rect width="28" height="28" rx="6" fill="#00D8C3"/>
<path d="M22.5714 4C22.9503 4 23.3137 4.15051 23.5816 4.41842C23.8495 4.68633 24 5.04969 24 5.42857V22.5714C24 22.9503 23.8495 23.3137 23.5816 23.5816C23.3137 23.8495 22.9503 24 22.5714 24H5.42857C5.04969 24 4.68633 23.8495 4.41842 23.5816C4.15051 23.3137 4 22.9503 4 22.5714V5.42857C4 5.04969 4.15051 4.68633 4.41842 4.41842C4.68633 4.15051 5.04969 4 5.42857 4H22.5714ZM22.5714 5.42857H5.42857V22.5714H22.5714V5.42857ZM10.4286 6.85714C10.618 6.85714 10.7997 6.9324 10.9336 7.06635C11.0676 7.20031 11.1429 7.38199 11.1429 7.57143V14.1229C11.5604 14.2707 11.9219 14.5443 12.1776 14.9061C12.4333 15.2678 12.5706 15.6999 12.5706 16.1429C12.5706 16.5858 12.4333 17.0179 12.1776 17.3797C11.9219 17.7414 11.5604 18.015 11.1429 18.1629V20.4286C11.1429 20.618 11.0676 20.7997 10.9336 20.9336C10.7997 21.0676 10.618 21.1429 10.4286 21.1429C10.2391 21.1429 10.0574 21.0676 9.92349 20.9336C9.78954 20.7997 9.71429 20.618 9.71429 20.4286V18.1643C9.29572 18.017 8.93319 17.7435 8.67673 17.3814C8.42027 17.0193 8.28253 16.5866 8.28253 16.1429C8.28253 15.6991 8.42027 15.2664 8.67673 14.9043C8.93319 14.5422 9.29572 14.2687 9.71429 14.1214V7.57143C9.71429 7.38199 9.78954 7.20031 9.92349 7.06635C10.0574 6.9324 10.2391 6.85714 10.4286 6.85714ZM17.5714 6.85714C17.7609 6.85714 17.9425 6.9324 18.0765 7.06635C18.2105 7.20031 18.2857 7.38199 18.2857 7.57143V9.83714C18.7033 9.98498 19.0648 10.2586 19.3205 10.6203C19.5761 10.9821 19.7134 11.4142 19.7134 11.8571C19.7134 12.3001 19.5761 12.7322 19.3205 13.0939C19.0648 13.4557 18.7033 13.7293 18.2857 13.8771V20.4286C18.2857 20.618 18.2105 20.7997 18.0765 20.9336C17.9425 21.0676 17.7609 21.1429 17.5714 21.1429C17.382 21.1429 17.2003 21.0676 17.0664 20.9336C16.9324 20.7997 16.8571 20.618 16.8571 20.4286V13.8786C16.4386 13.7313 16.076 13.4578 15.8196 13.0957C15.5631 12.7336 15.4254 12.3009 15.4254 11.8571C15.4254 11.4134 15.5631 10.9807 15.8196 10.6186C16.076 10.2565 16.4386 9.98296 16.8571 9.83571V7.57143C16.8571 7.38199 16.9324 7.20031 17.0664 7.06635C17.2003 6.9324 17.382 6.85714 17.5714 6.85714ZM10.4286 15.4286C10.2391 15.4286 10.0574 15.5038 9.92349 15.6378C9.78954 15.7717 9.71429 15.9534 9.71429 16.1429C9.71429 16.3323 9.78954 16.514 9.92349 16.6479C10.0574 16.7819 10.2391 16.8571 10.4286 16.8571C10.618 16.8571 10.7997 16.7819 10.9336 16.6479C11.0676 16.514 11.1429 16.3323 11.1429 16.1429C11.1429 15.9534 11.0676 15.7717 10.9336 15.6378C10.7997 15.5038 10.618 15.4286 10.4286 15.4286ZM17.5714 11.1429C17.382 11.1429 17.2003 11.2181 17.0664 11.3521C16.9324 11.486 16.8571 11.6677 16.8571 11.8571C16.8571 12.0466 16.9324 12.2283 17.0664 12.3622C17.2003 12.4962 17.382 12.5714 17.5714 12.5714C17.7609 12.5714 17.9425 12.4962 18.0765 12.3622C18.2105 12.2283 18.2857 12.0466 18.2857 11.8571C18.2857 11.6677 18.2105 11.486 18.0765 11.3521C17.9425 11.2181 17.7609 11.1429 17.5714 11.1429Z" fill="#1E1F24"/>
</svg>
