<svg width="28" height="28" viewBox="0 0 28 28" fill="none" xmlns="http://www.w3.org/2000/svg">
<rect width="28" height="28" rx="6" fill="#00D8C3"/>
<path d="M24.3487 10.1466C23.5643 8.10455 22.1552 6.34087 20.3083 5.08941C19.305 4.40769 18.1878 3.89739 17.0055 3.58076C16.904 3.52776 16.7905 3.5 16.6752 3.5C16.5598 3.5 16.4463 3.52776 16.3449 3.58076C16.2675 3.63211 16.1972 3.6928 16.1357 3.76137C16.1319 3.80024 16.1319 3.83937 16.1357 3.87824C16.1108 3.91014 16.0922 3.94614 16.0807 3.98448V4.15447C16.0594 4.30042 16.0864 4.44912 16.1577 4.57944L17.4348 6.7043V6.7893L17.5669 7.00178C17.6157 7.08811 17.6832 7.16321 17.765 7.2219C17.8467 7.2806 17.9406 7.32149 18.0403 7.34176C18.1308 7.36515 18.2252 7.37063 18.3179 7.35784C18.4107 7.34506 18.4997 7.31429 18.5798 7.26739C18.7474 7.17009 18.869 7.01332 18.9183 6.83064C18.9677 6.64797 18.941 6.45389 18.844 6.28996L18.3596 5.62062C18.6517 5.75972 18.9348 5.91584 19.2073 6.08809C19.432 6.22159 19.6489 6.36701 19.8569 6.52369L19.9339 6.58744L20.033 6.67243L20.3303 6.90616C20.7042 7.23629 21.0537 7.5913 21.3762 7.96859C21.4163 8.012 21.4531 8.05816 21.4863 8.10671L21.5633 8.20233L21.7725 8.46794C21.9151 8.65955 22.0474 8.85813 22.1688 9.0629C22.3009 9.26476 22.422 9.47724 22.5321 9.68973L22.6973 10.0085V10.1678L22.8514 10.1041L22.7633 10.2528C22.9556 10.6979 23.1138 11.156 23.2367 11.6234C23.2918 11.8465 23.3468 12.0908 23.3799 12.3246V12.5158C23.3852 12.5439 23.3852 12.5727 23.3799 12.6008V12.9195C23.4349 13.4743 23.4349 14.0328 23.3799 14.5875V15.3206C23.3333 15.5999 23.2708 15.8766 23.1927 16.1493C23.1664 16.244 23.1607 16.3428 23.1758 16.4397C23.191 16.5366 23.2267 16.6294 23.2808 16.7124C23.3278 16.7905 23.3913 16.8583 23.4672 16.9114C23.543 16.9645 23.6295 17.0016 23.7211 17.0205H23.8973C24.0611 17.0239 24.2215 16.9746 24.353 16.8804C24.4846 16.7861 24.5799 16.6522 24.6239 16.4999C25.2065 14.4047 25.1104 12.1876 24.3487 10.1466ZM21.6624 20.1865C21.5555 20.1257 21.4341 20.0928 21.3101 20.0909H18.3596C18.2586 20.0905 18.1587 20.1101 18.0659 20.1485C17.9731 20.1868 17.8895 20.2432 17.8201 20.314C17.7533 20.3796 17.7012 20.4579 17.6671 20.5438C17.6331 20.6297 17.6177 20.7215 17.622 20.8134C17.6276 20.9994 17.7075 21.1762 17.8449 21.3069C17.9823 21.4375 18.1667 21.5119 18.3596 21.5146H19.1743C18.9211 21.6739 18.6789 21.8121 18.4367 21.9395L17.7651 22.2476H17.699L17.5339 22.3008L17.1706 22.4389C16.6991 22.5942 16.2173 22.7184 15.7284 22.8107L15.3651 22.8639H14.3412C13.8116 22.8749 13.2818 22.8501 12.7559 22.7895H12.5247L12.1173 22.7151C11.8751 22.7151 11.6329 22.6089 11.4017 22.5451C11.1495 22.5093 10.8995 22.4596 10.6531 22.3964L10.4329 22.3114L10.3008 22.2583L10.0476 22.152C9.51989 21.9162 9.01512 21.6353 8.53929 21.3127L8.20901 21.079L8.10992 21.0046L7.95579 20.8771C7.74477 20.7063 7.54268 20.5255 7.35028 20.3353C7.20384 20.2039 7.01078 20.1316 6.81082 20.1334C6.70737 20.122 6.60258 20.1343 6.50501 20.1694C6.40743 20.2045 6.31983 20.2613 6.24935 20.3353C6.17612 20.4045 6.11794 20.4872 6.07822 20.5784C6.0385 20.6696 6.01804 20.7675 6.01804 20.8665C6.01804 20.9654 6.0385 21.0634 6.07822 21.1546C6.11794 21.2458 6.17612 21.3285 6.24935 21.3977C7.87135 22.9458 9.94631 23.9767 12.1944 24.3513C12.8021 24.4482 13.417 24.498 14.0329 24.5C15.6952 24.4973 17.3356 24.1342 18.833 23.4376C19.9409 22.9269 20.9499 22.237 21.8165 21.3977C21.8878 21.3276 21.9439 21.2445 21.9817 21.1533C22.0195 21.0622 22.0382 20.9647 22.0367 20.8665C22.038 20.7746 22.019 20.6835 21.9811 20.5993C21.9431 20.515 21.887 20.4395 21.8165 20.3778C21.7785 20.305 21.7262 20.24 21.6624 20.1865ZM6.24935 13.7163C6.2239 13.6302 6.18051 13.5499 6.12183 13.4805C6.06314 13.4111 5.99041 13.354 5.90806 13.3126C5.73986 13.2195 5.54043 13.1941 5.35293 13.2418C5.16544 13.2895 5.00495 13.4065 4.90621 13.5676L4.47685 14.2688C4.43854 13.7737 4.43854 13.2765 4.47685 12.7814V12.5902C4.49137 12.5308 4.49137 12.4689 4.47685 12.4095C4.47685 12.2502 4.53189 12.0908 4.56492 11.9421C4.59795 11.7933 4.68603 11.4215 4.76309 11.1771C4.84016 10.9328 5.02731 10.7734 5.14842 10.5078L5.28053 10.1997L5.39062 9.96596C5.5874 9.5502 5.81554 9.14894 6.0732 8.76542C6.1943 8.57418 6.33742 8.39357 6.46954 8.21295L6.64568 8.00047L6.84385 7.77736C7.15173 7.43772 7.48274 7.11828 7.83469 6.82117L8.22002 6.52369C8.42919 6.36433 8.61635 6.24746 8.80351 6.13059C9.22811 5.85778 9.6777 5.62307 10.1466 5.42939L10.2898 5.36564H10.3778L10.7301 5.23815C10.9797 5.15316 11.2329 5.07879 11.4898 5.01504C11.5883 4.98852 11.6802 4.94278 11.7598 4.88065C11.8393 4.81853 11.9048 4.74132 11.9522 4.65381C11.9895 4.57175 12.0087 4.48312 12.0087 4.39352C12.0087 4.30391 11.9895 4.21528 11.9522 4.13322C11.9199 3.95689 11.821 3.79839 11.6745 3.68846C11.5281 3.57853 11.3445 3.52501 11.1595 3.53826C9.76281 3.89947 8.45352 4.52266 7.30643 5.37224C6.15934 6.22183 5.19691 7.28115 4.47411 8.48973C3.75132 9.6983 3.28231 11.0324 3.09388 12.416C2.90545 13.7995 3.00129 15.2053 3.37592 16.553C3.43472 16.7378 3.56477 16.8937 3.73922 16.9886C3.84731 17.0453 3.96853 17.0745 4.09152 17.0736C4.15703 17.0852 4.22418 17.0852 4.28969 17.0736C4.46106 17.0245 4.60667 16.9144 4.69703 16.7655L6.24935 14.2901C6.32648 14.1061 6.32648 13.9003 6.24935 13.7163ZM16.521 13.6632L14.9137 13.1426L15.4862 8.26607C15.4812 8.22034 15.463 8.1769 15.4335 8.14072C15.4041 8.10455 15.3647 8.07712 15.3199 8.06159C15.275 8.04605 15.2266 8.04304 15.18 8.0529C15.1335 8.06276 15.0908 8.0851 15.0568 8.11733L11.4017 13.8438C11.3788 13.878 11.3637 13.9166 11.3574 13.9568C11.3511 13.9971 11.3538 14.0382 11.3653 14.0774C11.3767 14.1166 11.3967 14.153 11.4239 14.1842C11.451 14.2153 11.4848 14.2406 11.5228 14.2582L13.1192 14.7894L12.5467 19.6553C12.5349 19.7131 12.5451 19.773 12.5754 19.824C12.6058 19.8751 12.6542 19.9138 12.7117 19.9332C12.7693 19.9526 12.8322 19.9513 12.8888 19.9295C12.9455 19.9077 12.9921 19.867 13.0201 19.8147L16.6311 14.0776C16.6563 14.0446 16.6735 14.0066 16.6816 13.9665C16.6897 13.9263 16.6884 13.8849 16.6779 13.8452C16.6674 13.8055 16.6478 13.7686 16.6207 13.7372C16.5936 13.7057 16.5595 13.6804 16.521 13.6632Z" fill="#1E1F24"/>
</svg>
