<svg width="16" height="16" viewBox="0 0 16 16" fill="none" xmlns="http://www.w3.org/2000/svg">
<rect width="16" height="16" rx="2" fill="#00D8C3"/>
<path d="M14.0247 13H12.9653C13.6338 12.0478 14.0329 10.9119 14.1157 9.7261H15C14.948 10.605 14.7423 11.4658 14.3933 12.2642C14.2837 12.52 14.1607 12.759 14.0247 13ZM3.02533 13H1.966C1.83001 12.759 1.70693 12.51 1.59733 12.2542C1.253 11.4582 1.05045 10.601 1 9.7261H1.875C1.95652 10.9122 2.35576 12.0484 3.02533 13ZM15 8.81627H14.1157C13.901 5.67164 11.458 3.13605 8.434 2.91232V2C9.2766 2.05216 10.1038 2.26343 10.877 2.62395C11.648 2.9837 12.3515 3.48901 12.9537 4.11548C13.5533 4.73684 14.0412 5.4698 14.3933 6.27819C14.742 7.07577 14.9477 7.93572 15 8.81379V8.81627ZM1.87967 8.81627H1C1.04903 7.938 1.25162 7.07721 1.59733 6.27819C1.94915 5.47109 2.43714 4.73971 3.037 4.12045C3.63907 3.49385 4.34264 2.98853 5.11367 2.62893C5.88658 2.26669 6.71378 2.05373 7.55667 2V2.91232C4.52333 3.13605 2.08967 5.67164 1.875 8.81379L1.87967 8.81627ZM12.3097 9.35322H10.415C10.3909 9.36037 10.3658 9.36237 10.341 9.35911C10.3162 9.35585 10.2923 9.34738 10.2706 9.33421C10.2489 9.32103 10.2299 9.30341 10.2146 9.28235C10.1993 9.26129 10.1881 9.23722 10.1817 9.21152L9.89467 8.27186L9.001 12.6246C9.001 12.6246 8.98233 12.8558 8.86333 12.8558H8.54133C8.51759 12.8638 8.49259 12.8665 8.46783 12.8639C8.44307 12.8612 8.41907 12.8533 8.39727 12.8405C8.37546 12.8278 8.35632 12.8104 8.34097 12.7895C8.32563 12.7687 8.31442 12.7447 8.308 12.7191L7.20433 7.04136L6.36667 11.1455C6.35132 11.1971 6.31968 11.2413 6.27713 11.2708C6.23459 11.3003 6.18377 11.3131 6.13333 11.3071H5.82067C5.77243 11.3203 5.72128 11.3132 5.67783 11.2873C5.63437 11.2614 5.60197 11.2186 5.58733 11.1679L5.025 9.35073H3.506C3.4811 9.3514 3.45632 9.34674 3.43313 9.33705C3.40994 9.32735 3.38881 9.31281 3.37098 9.29427C3.35315 9.27574 3.33898 9.25359 3.32931 9.22913C3.31964 9.20468 3.31466 9.1784 3.31467 9.15186V8.75412C3.31497 8.72768 3.32016 8.70156 3.32994 8.67725C3.33972 8.65295 3.3539 8.63094 3.37167 8.61247C3.38944 8.594 3.41044 8.57944 3.43349 8.56963C3.45654 8.55981 3.48118 8.55493 3.506 8.55525H5.389C5.50333 8.55525 5.60133 8.55525 5.62233 8.67209L5.914 9.61672L6.73533 5.15955C6.74775 5.12103 6.77097 5.0875 6.80185 5.06349C6.83273 5.03948 6.86978 5.02616 6.908 5.02531H7.31633C7.33992 5.01733 7.36477 5.01448 7.38941 5.01695C7.41404 5.01942 7.43796 5.02715 7.45974 5.03967C7.48151 5.0522 7.5007 5.06927 7.51615 5.08987C7.5316 5.11046 7.543 5.13416 7.54967 5.15955L8.651 10.7975L9.46067 6.74802C9.48867 6.6461 9.56567 6.56158 9.66367 6.58893H9.99267C10.0409 6.57507 10.0923 6.58187 10.136 6.60789C10.1796 6.6339 10.2119 6.67706 10.226 6.72814L10.786 8.57266H12.3097C12.3345 8.57233 12.3591 8.57721 12.3822 8.58703C12.4052 8.59684 12.4262 8.6114 12.444 8.62987C12.4618 8.64834 12.4759 8.67035 12.4857 8.69466C12.4955 8.71896 12.5007 8.74508 12.501 8.77153V9.16678C12.5007 9.19322 12.4955 9.21934 12.4857 9.24365C12.4759 9.26795 12.4618 9.28997 12.444 9.30844C12.4262 9.3269 12.4052 9.34146 12.3822 9.35128C12.3591 9.36109 12.3345 9.36598 12.3097 9.36565" fill="#1E1F24"/>
</svg>
