<svg width="22" height="20" viewBox="0 0 22 20" fill="none" xmlns="http://www.w3.org/2000/svg">
<path d="M17.2529 5.17482C17.2155 5.02433 17.138 4.88704 17.0287 4.77789C16.9195 4.66873 16.7827 4.59187 16.6332 4.55567C16.4837 4.51946 16.3273 4.52529 16.1808 4.57252C16.0344 4.61976 15.9036 4.70659 15.8026 4.82358L11.6743 8.98967L11.5148 8.94576C11.096 8.83337 10.6521 8.86368 10.2521 9.03197C9.85207 9.20026 9.51832 9.49712 9.30264 9.87645C9.08696 10.2558 9.00143 10.6964 9.05932 11.1298C9.11722 11.5632 9.3153 11.9652 9.62281 12.2734C9.93032 12.5816 10.33 12.7786 10.7599 12.834C11.1898 12.8894 11.6258 12.8001 12.0002 12.5798C12.3746 12.3595 12.6664 12.0206 12.8304 11.6158C12.9944 11.211 13.0213 10.7628 12.907 10.341L12.8635 10.1751L16.9676 6.03341C17.0902 5.93169 17.1819 5.79724 17.2323 5.64542C17.2828 5.4936 17.2899 5.33052 17.2529 5.17482Z" fill="#E9E9E9"/>
<path d="M18.9062 11.7167H21.1637C21.2739 11.7168 21.3831 11.6948 21.4848 11.652C21.5866 11.6093 21.679 11.5467 21.7568 11.4678C21.8345 11.389 21.896 11.2953 21.9377 11.1924C21.9795 11.0894 22.0006 10.9792 22 10.8679C21.939 7.96416 20.753 5.2001 18.6962 3.16846C16.6395 1.13682 13.8757 -0.000637924 10.9976 2.68408e-07C8.11955 0.000638461 5.3563 1.13932 3.30041 3.17187C1.24452 5.20442 0.0597028 7.96901 1.39728e-05 10.8728C-0.00062321 10.984 0.020538 11.0943 0.0622806 11.1973C0.104023 11.3002 0.165523 11.3938 0.243244 11.4727C0.320965 11.5516 0.413374 11.6142 0.515154 11.6569C0.616935 11.6996 0.72608 11.7216 0.836313 11.7216H3.09867C3.31011 11.7054 3.50768 11.6092 3.65184 11.4523C3.79599 11.2953 3.87608 11.0892 3.87608 10.8752C3.87608 10.6612 3.79599 10.4551 3.65184 10.2982C3.50768 10.1413 3.31011 10.0451 3.09867 10.0288H1.71128L1.74996 9.702C1.95737 8.02845 2.60873 6.44246 3.63525 5.1115L3.83829 4.84807L4.43288 5.4481C4.51046 5.5259 4.60248 5.5875 4.70368 5.62935C4.80488 5.67121 4.91327 5.6925 5.02264 5.69202C5.19116 5.693 5.35609 5.64287 5.49604 5.54814C5.63599 5.4534 5.74452 5.31843 5.80756 5.16071C5.8706 5.00299 5.88523 4.8298 5.84957 4.66359C5.81391 4.49737 5.7296 4.3458 5.60757 4.22852L5.01781 3.67239L5.27401 3.4675C6.59597 2.42566 8.17299 1.76481 9.8374 1.5552L10.1516 1.49666V2.89674C10.1677 3.11012 10.263 3.3095 10.4185 3.45497C10.5741 3.60044 10.7783 3.68126 10.9903 3.68126C11.2024 3.68126 11.4066 3.60044 11.5621 3.45497C11.7176 3.3095 11.813 3.11012 11.829 2.89674V1.49666L12.1529 1.54056C14.2087 1.7993 16.1205 2.7415 17.5867 4.21846C19.0529 5.69543 19.99 7.62305 20.25 9.69712L20.3032 10.0142H18.9062C18.6947 10.0304 18.4971 10.1266 18.353 10.2836C18.2088 10.4405 18.1288 10.6466 18.1288 10.8606C18.1288 11.0746 18.2088 11.2807 18.353 11.4376C18.4971 11.5946 18.6947 11.6908 18.9062 11.707V11.7167ZM0.304562 14.8925C0.304562 14.8925 1.54209 14.1462 2.29138 14.1462C3.70293 14.1949 3.7416 15.0438 4.39904 15.0438C5.05648 15.0438 5.32235 14.1462 6.59372 14.1462C7.86509 14.1462 7.98111 15.0438 8.7884 15.0438C9.5957 15.0438 9.60053 14.1462 10.8719 14.1462C12.1433 14.1462 12.2013 15.0438 13.1488 15.0438C14.0962 15.0438 13.6322 14.1462 15.1404 14.1462C16.6486 14.1462 16.6631 15.0389 17.4028 15.0389C18.1424 15.0389 18.2681 14.1413 19.4186 14.1413C20.5691 14.1413 21.0283 15.0194 21.6713 15.0389V16.4292C21.0912 16.7073 20.0277 15.6097 19.5684 15.6097C19.1092 15.6097 18.2971 16.4731 17.3738 16.4731C16.4504 16.4731 15.7447 15.3804 15.1936 15.3804C14.6425 15.3804 14.5023 16.4536 13.0279 16.4536C11.5535 16.4536 11.8242 15.5901 10.8671 15.5901C9.90991 15.5901 10.1516 16.4731 8.8174 16.4731C7.48319 16.4731 7.43002 15.6097 6.53571 15.6097C5.6414 15.6097 5.80093 16.4731 4.65525 16.4731C3.50957 16.4731 3.09384 15.6097 2.2382 15.6097C1.38257 15.6097 0.90399 16.4731 0.294894 16.4731V14.8877L0.304562 14.8925Z" fill="#E9E9E9"/>
<path d="M0.304562 18.4182C0.304562 18.4182 1.54209 17.6718 2.29138 17.6718C3.70293 17.7206 3.7416 18.5694 4.39904 18.5694C5.05648 18.5694 5.32235 17.6718 6.59372 17.6718C7.86509 17.6718 7.98111 18.5694 8.7884 18.5694C9.5957 18.5694 9.60053 17.6718 10.8719 17.6718C12.1433 17.6718 12.2013 18.5694 13.1488 18.5694C14.0962 18.5694 13.6322 17.6718 15.1404 17.6718C16.6486 17.6718 16.6631 18.5645 17.4028 18.5645C18.1424 18.5645 18.2681 17.6669 19.4186 17.6669C20.5691 17.6669 21.0283 18.545 21.6713 18.5645V19.9549C21.0912 20.2329 20.0277 19.1353 19.5684 19.1353C19.1092 19.1353 18.2971 19.9988 17.3738 19.9988C16.4504 19.9988 15.7447 18.906 15.1936 18.906C14.6425 18.906 14.5023 19.9793 13.0279 19.9793C11.5535 19.9793 11.8242 19.1158 10.8671 19.1158C9.90991 19.1158 10.1516 19.9988 8.8174 19.9988C7.48319 19.9988 7.43002 19.1353 6.53571 19.1353C5.6414 19.1353 5.80093 19.9988 4.65525 19.9988C3.50957 19.9988 3.09384 19.1353 2.2382 19.1353C1.38257 19.1353 0.90399 19.9988 0.294894 19.9988V18.4133L0.304562 18.4182Z" fill="#E9E9E9"/>
</svg>
