<?xml version="1.0" standalone="no"?><!DOCTYPE svg PUBLIC "-//W3C//DTD SVG 1.1//EN" "http://www.w3.org/Graphics/SVG/1.1/DTD/svg11.dtd"><svg t="1747024223154" class="icon" viewBox="0 0 1024 1024" version="1.1" xmlns="http://www.w3.org/2000/svg" p-id="9796" xmlns:xlink="http://www.w3.org/1999/xlink" width="200" height="200"><path d="M512 102.4a409.6 409.6 0 1 0 409.6 409.6 409.6 409.6 0 0 0-409.6-409.6z m119.296 674.816a174.592 174.592 0 1 1-243.2-250.368V291.84a89.088 89.088 0 0 1 36.864-70.144 142.848 142.848 0 0 1 164.352 0 89.088 89.088 0 0 1 37.376 70.144v235.008a174.592 174.592 0 0 1 3.584 250.368z m47.616-283.136h-28.16a11.776 11.776 0 0 1 0-23.04h28.16a11.776 11.776 0 1 1 0 23.04z m0-35.328h-28.16a11.776 11.776 0 0 1 0-23.04h28.16a11.776 11.776 0 0 1 0 23.04z m0-35.328h-28.16a11.776 11.776 0 0 1 0-23.04h28.16a11.776 11.776 0 1 1 0 23.04z m0-35.328h-28.16a11.776 11.776 0 0 1 0-23.04h28.16a11.776 11.776 0 0 1 0 23.04z m0-35.328h-28.16a11.776 11.776 0 0 1 0-23.04h28.16a11.776 11.776 0 1 1 0 23.04z m0-35.328h-28.16a11.776 11.776 0 0 1 0-23.04h28.16a11.776 11.776 0 0 1 0 23.04z m0 0" p-id="9797" fill="#61d5c3"></path><path d="M588.288 555.52l-8.704-7.168v-256c0-26.624-33.28-51.2-72.704-51.2s-72.704 22.528-72.704 51.2v256l-8.704 7.168a127.488 127.488 0 1 0 162.816 0z m-80.896 187.392a89.088 89.088 0 0 1-35.84-170.496V358.4a32.768 32.768 0 0 1 35.84-27.136 32.768 32.768 0 0 1 35.84 27.136v216.064a89.088 89.088 0 0 1-35.84 170.496z m0 0" p-id="9798" fill="#61d5c3"></path></svg>