<svg width="16" height="16" viewBox="0 0 16 16" fill="none" xmlns="http://www.w3.org/2000/svg">
<path d="M14.6588 0H1.3412C0.60061 0 0 0.655199 0 1.4631V14.5369C0 15.3448 0.60061 16 1.3412 16H14.6588C15.3994 16 16 15.3448 16 14.5369V1.4631C16 0.655199 15.3994 0 14.6588 0ZM14.6653 13.8107C14.6653 14.2173 14.3626 14.5458 13.9915 14.5458H2.00692C1.63418 14.5458 1.33306 14.2155 1.33306 13.8107V2.1911C1.33306 1.78449 1.63581 1.456 2.00692 1.456H13.9915C14.3642 1.456 14.6653 1.78626 14.6653 2.1911V13.8107Z" fill="#6D6F72"/>
<path d="M13.1305 5.54156C13.1288 5.53801 13.1272 5.53268 13.1272 5.52913C13.1012 5.39774 13.0426 5.27344 12.9498 5.17224C12.857 5.07103 12.7431 5.0071 12.6226 4.97869C12.6194 4.97692 12.6145 4.97514 12.6112 4.97514C12.5673 4.96626 12.5233 4.96094 12.4794 4.96094H9.81002C9.44379 4.96094 9.14267 5.28765 9.14267 5.68894C9.14267 6.08845 9.44216 6.41694 9.81002 6.41694H10.868L8.23606 9.28632L6.35122 7.23016C6.09242 6.94784 5.66759 6.94784 5.4088 7.23016L3.0503 9.80125C2.7915 10.0836 2.7915 10.547 3.0503 10.8293C3.3091 11.1116 3.73392 11.1116 3.99272 10.8293L5.87919 8.77139L7.7559 10.8204C7.75915 10.824 7.76078 10.8275 7.76241 10.8293C7.89262 10.9714 8.06353 11.0424 8.23443 11.0406C8.40534 11.0406 8.57624 10.9696 8.70646 10.8293C8.70971 10.8258 8.71134 10.8222 8.71297 10.8204L11.8088 7.44324V8.59738C11.8088 8.99689 12.1083 9.32538 12.4761 9.32538C12.8424 9.32538 13.1435 8.99867 13.1435 8.59738V5.68716C13.1435 5.63922 13.1386 5.5895 13.1305 5.54156Z" fill="#6D6F72"/>
</svg>
