<svg width="32" height="32" viewBox="0 0 16 16" fill="none" xmlns="http://www.w3.org/2000/svg">
<rect width="16" height="16" rx="2" fill="#00D8C3"/>
<path d="M13.7501 8.52588H11.2751C11.2437 8.535 11.2108 8.53755 11.1784 8.53339C11.1461 8.52923 11.1148 8.51845 11.0865 8.50166C11.0581 8.48488 11.0333 8.46242 11.0133 8.43559C10.9934 8.40876 10.9787 8.37809 10.9703 8.34535L10.5954 7.14814L9.42799 12.694C9.42799 12.694 9.40361 12.9885 9.24816 12.9885H8.82753C8.79652 12.9986 8.76386 13.0021 8.73152 12.9988C8.69918 12.9954 8.66782 12.9853 8.63934 12.969C8.61086 12.9527 8.58585 12.9307 8.56581 12.9041C8.54577 12.8775 8.53112 12.8469 8.52273 12.8143L7.08103 5.58037L5.98679 10.8095C5.96675 10.8751 5.92542 10.9315 5.86984 10.9691C5.81426 11.0066 5.74787 11.0229 5.68199 11.0153H5.27356C5.21055 11.0322 5.14373 11.0231 5.08697 10.9901C5.03021 10.9571 4.98787 10.9026 4.96876 10.838L4.23419 8.52272H2.24994C2.21741 8.52356 2.18504 8.51763 2.15475 8.50528C2.12446 8.49292 2.09685 8.4744 2.07356 8.45078C2.05027 8.42717 2.03176 8.39895 2.01913 8.36779C2.00649 8.33663 1.99999 8.30315 2 8.26934V7.76258C2.0004 7.72889 2.00718 7.69561 2.01995 7.66465C2.03273 7.63368 2.05125 7.60563 2.07446 7.5821C2.09767 7.55857 2.12511 7.54003 2.15522 7.52752C2.18533 7.51501 2.21751 7.50879 2.24994 7.50921H4.70968C4.85903 7.50921 4.98705 7.50921 5.01448 7.65807L5.39548 8.86161L6.46838 3.18278C6.4846 3.1337 6.51492 3.09098 6.55526 3.06039C6.5956 3.02981 6.644 3.01283 6.69393 3.01175H7.22733C7.25814 3.00158 7.2906 2.99795 7.32279 3.0011C7.35497 3.00424 7.38622 3.01409 7.41466 3.03005C7.4431 3.04601 7.46817 3.06776 7.48835 3.094C7.50853 3.12024 7.52342 3.15043 7.53213 3.18278L8.97079 10.366L10.0284 5.20663C10.065 5.07678 10.1656 4.96909 10.2936 5.00393H10.7234C10.7864 4.98628 10.8536 4.99495 10.9106 5.02809C10.9675 5.06124 11.0097 5.11623 11.0282 5.1813L11.7597 7.53138H13.7501C13.7825 7.53096 13.8147 7.53718 13.8448 7.54969C13.8749 7.56219 13.9023 7.58074 13.9255 7.60427C13.9487 7.6278 13.9673 7.65585 13.98 7.68682C13.9928 7.71778 13.9996 7.75106 14 7.78475V8.28834C13.9996 8.32203 13.9928 8.35531 13.98 8.38628C13.9673 8.41725 13.9487 8.4453 13.9255 8.46883C13.9023 8.49235 13.8749 8.5109 13.8448 8.52341C13.8147 8.53592 13.7825 8.54214 13.7501 8.54172" fill="#1E1F24"/>
</svg>
